<?xml version="1.0" encoding="utf-8"?>
<!-- Generator: Adobe Illustrator 28.3.0, SVG Export Plug-In . SVG Version: 6.00 Build 0)  -->
<svg version="1.1" id="Layer_1" xmlns="http://www.w3.org/2000/svg" xmlns:xlink="http://www.w3.org/1999/xlink" x="0px" y="0px"
	 viewBox="0 0 1080 1080" style="enable-background:new 0 0 1080 1080;" xml:space="preserve">
<path d="M534.1,670.01c-8.47-4.17-16.41-9.32-25.26-12.84c-16.66-6.63-33.63-7.3-51.04-4.05c-11.93,2.22-23.84,4.46-36.15,3.69
	c-8.88-0.55-17.33-2.89-24.55-7.44c-30.28-19.09-62.78-21.76-96.88-14.61c-19.76,4.14-39.13,9.68-58.24,16.16
	c-3.36,1.14-6.25,3.94-10.18,3.21c-0.89-1.7,0.53-2.08,1.45-2.61c15.31-8.8,30.66-17.78,47.24-23.75
	c14.42-5.2,28.52-11.48,43.73-14.61c31.01-6.38,60.07-2.99,86.69,15.17c11.59,7.91,24.5,10.63,38.42,10.13
	c19.57-0.71,38.83,1.09,57.02,9.17c9.71,4.3,18.36,10.09,25.31,18.25C532.73,667.12,533.85,668.31,534.1,670.01z"/>
<path d="M534.17,670.04l-0.05,0.08c0-0.04-0.01-0.08-0.02-0.11C534.12,670.02,534.15,670.03,534.17,670.04z"/>
<path d="M385.68,658.86c-0.63,1.72-1.14,2.23-3.18,1.76c-44.33-10.16-88.37-9.67-132.02,3.9c-1.26,0.39-2.58,0.61-3.88,0.84
	c-0.21,0.04-0.48-0.25-1.59-0.87c19.76-10.99,39.97-18.74,61.98-21.45C334.89,639.6,361.31,643.52,385.68,658.86z"/>
<path d="M542.27,670.01c8.47-4.17,16.41-9.32,25.26-12.84c16.66-6.63,33.63-7.3,51.04-4.05c11.93,2.22,23.84,4.46,36.15,3.69
	c8.88-0.55,17.33-2.89,24.55-7.44c30.28-19.09,62.78-21.76,96.88-14.61c19.76,4.14,39.13,9.68,58.24,16.16
	c3.36,1.14,6.25,3.94,10.18,3.21c0.89-1.7-0.53-2.08-1.45-2.61c-15.31-8.8-30.66-17.78-47.24-23.75
	c-14.42-5.2-28.52-11.48-43.73-14.61c-31.01-6.38-60.07-2.99-86.69,15.17c-11.59,7.91-24.5,10.63-38.42,10.13
	c-19.57-0.71-38.83,1.09-57.02,9.17c-9.71,4.3-18.36,10.09-25.31,18.25C543.64,667.12,542.52,668.31,542.27,670.01z"/>
<path d="M690.69,658.86c0.63,1.72,1.14,2.23,3.18,1.76c44.33-10.16,88.37-9.67,132.02,3.9c1.26,0.39,2.58,0.61,3.88,0.84
	c0.21,0.04,0.48-0.25,1.59-0.87c-19.76-10.99-39.97-18.74-61.98-21.45C741.48,639.6,715.06,643.52,690.69,658.86z"/>
<g>
	<path d="M580.28,481.92c0.03-0.97,0.13-1.94,0.28-2.89c0.04-0.3,0.41-0.54,0.98-1.24c0.32,0.68,0.62,1.36,0.87,2.04
		c0.5,1.29,0.89,2.58,1.19,3.88c0.9,3.9,1.05,7.83,1.09,11.73c0.02,2.73-0.02,5.44,0.11,8.11c-0.6,1.91-1.85,3.49-3.7,4.88
		c-4.07,3.06-6.7,6.9-6.65,12.29c0.02,2.38-0.71,4.64-3.7,5.6c-6.22-3.09-12.63-1.02-19.91,0.68c0.22-1.43,0.22-2.37,0.43-3.1
		c2.44-4.29,6.02-7.01,9.78-9.51c0.5-0.33,0.99-0.67,1.47-1.02c2.52-1.79,4.87-3.73,7.2-5.78
		C577.55,500.71,579.93,491.78,580.28,481.92z"/>
	<path d="M587.57,527.56c-0.87,2.59-2.05,5.08-3.64,7.4c-0.9,1.31-1.7,2.65-2.43,4.02c-2.25,4.19-3.81,8.62-5.2,13.11
		c-0.7,2.21-1.35,4.44-2.02,6.66c-1.39,4.6-3.28,9.01-5.62,13.16c-0.04,0.07-0.08,0.14-0.12,0.21c-0.73,1.29-1.51,2.54-2.33,3.77
		c-0.04,0.05-0.07,0.11-0.1,0.16l-0.99,1.47c-1.49,2.12-3.11,4.16-4.85,6.1c-3.21,3.32-6.36,5.9-9.51,7.76
		c-0.02,0.02-0.04,0.03-0.06,0.04c-4.02,2.37-8.04,3.55-12.16,3.55c-0.11,0-0.22,0-0.33-0.01c-4-0.05-8.11-1.22-12.42-3.5
		c-1.68-0.89-3.39-1.94-5.14-3.16c-0.83-0.58-1.6-1.26-2.34-1.99c-2.28-2.24-4.28-4.75-6.07-7.39l-1.22-1.81l-0.72-1.06
		c-0.76-1.18-1.5-2.36-2.2-3.54c-0.11-0.18-0.21-0.37-0.32-0.56c-3.3-5.62-5.81-11.32-7.23-18.08c-0.11-0.54-0.24-1.08-0.39-1.62
		c-0.62-2.43-1.43-4.82-1.86-7.28c-0.43-2.5-1.24-4.31-3.38-5.99c-0.07-0.05-0.15-0.11-0.23-0.17c-3.59-2.68-5.4-6.61-5.85-11.25
		c-0.01-0.07-0.01-0.15-0.02-0.22c-0.49-5.45-1.66-10.83-1.93-16.11c-0.07-1.41-0.08-2.8,0.01-4.19c0.09-0.07,0.18-0.13,0.27-0.19
		c1.59-1.03,2.81-0.66,3.32,0.29c3.13,5.73,8.44,9.88,10.36,16.64c1.4,4.96,3.54,8.7,6.36,11.31c4,3.71,9.37,5.15,15.94,4.59
		c4.81-0.41,6.89-2.8,6.95-7.5c0.06-4.39-1.02-8.3-2.98-11.67c-1.74-3.01-4.18-5.61-7.15-7.76c-3.22-2.33-5.86-4.87-8.01-7.61
		c-0.01-0.02-0.02-0.03-0.04-0.05c-3.16-4.02-5.24-8.46-6.46-13.26c-0.05-0.16-0.09-0.33-0.13-0.49c-1.22-4.99-1.53-10.36-1.2-16.06
		c0.27-4.71,1.31-8.93,2.96-12.63c0.12-0.28,0.25-0.56,0.39-0.84c0.23-0.49,0.48-0.97,0.73-1.43c4.3-7.89,11.56-13.11,20.04-15.35
		c2.93-0.78,6.01-1.2,9.17-1.24c0.53-0.02,1.05-0.02,1.57,0c3.01,0.07,6.08,0.48,9.13,1.23c1.79,0.43,3.58,0.99,5.35,1.66
		c6.55,2.5,11.48,7.61,14.73,13.7c0.26,0.47,0.5,0.95,0.73,1.43c0.14,0.28,0.27,0.56,0.39,0.84c0.23,0.52,0.45,1.05,0.66,1.59
		c2.48,6.19,3.4,12.98,2.68,18.92c-0.33,2.73-0.82,5.37-1.51,7.91c-1.37,5.14-3.52,9.86-6.7,14.07c-0.02,0.04-0.06,0.08-0.1,0.12
		c-2.14,2.81-4.75,5.38-7.89,7.69c-2.86,2.1-5.3,4.63-7.17,7.56c-1.74,2.68-3,5.69-3.71,9.01c-1.24,5.85,2.63,10.32,8.63,10.92
		c6.8,0.68,11.78-1.09,14.99-5.35c2.82-2.61,4.96-6.35,6.36-11.31c1.92-6.76,7.23-10.91,10.36-16.64c0.51-0.95,1.73-1.32,3.32-0.29
		c0.13,1.45,0.23,2.91,0.28,4.38C589.73,516.78,589.29,522.39,587.57,527.56z"/>
	<path d="M525.57,527c-7.28-1.71-13.69-3.77-19.91-0.69c-2.99-0.96-3.73-3.21-3.7-5.6c0.05-5.39-2.58-9.23-6.65-12.29
		c-3.04-2.29-4.47-5.09-4.02-9.01c0.77-6.57,1.27-13.17,1.88-19.71c2.9,0.19,2.52,1.89,2.54,3.1c0.02,14.07,7.45,23.61,18.69,30.9
		c4.07,2.64,8.31,5.15,10.57,9.73C525.36,524.24,525.31,525.26,525.57,527z"/>
</g>
<g>
	<path d="M533.06,649.37c-13.17-17.22-28.26-32.31-47.41-42.95c-14.92-8.29-30.73-12.5-47.88-10.75c-2.59,0.26-4.28-0.36-4.89-2.49
		c-0.29-1,0.39-2.02,1.42-2.09c12.55-0.9,25.03-1.65,36.18-8.29c-8.41,0.5-16.75,1.23-25.15,1.11
		c-16.97-0.24-30.18-7.07-39.27-21.55c-3.28-5.22-6.26-10.6-8.69-16.29c-0.55-1.28-0.55-3-2.44-3.84c-0.91,3.44,0.38,6.96-0.7,10.69
		c-23.05-6.44-38.49-21.52-49.62-41.98c-0.31,3.74,2.3,6.55,2.34,10.2c-2.92,1.05-5.91,1.36-8.8,1.51
		c-14.95,0.75-29.88,1.88-44.9,0.46c-8.75-0.82-17.63-0.53-26.44,0.32c-7.27,0.71-14.24,0.01-20.5-4.39
		c-3.4-2.39-7.13-4.3-10.66-6.5c-1.39-0.87-3.05-1.78-2.78-3.79c0.33-2.35,2.38-1.84,3.95-2.06c1.16-0.16,1.13-0.97,0.97-1.84
		c-5.6-5.05-11.04-10.26-15.91-16.04c-2.28-1.77-4.49-3.56-3.55-6.99c0.55-1.98-1.07-2.99-2.08-4.25c-1.77-2.23-2.09-4.16,0.98-5.53
		c0.59-0.26,1.5-0.51,1.63-0.95c1.45-4.91,4.51-3.14,7.47-1.9c7.29,3.04,14.4,6.54,22.24,8.52c-2.49-1.82-4.99-3.64-7.48-5.47
		c-1.54-1.13-3.09-2.41-1.85-4.5c1.21-2.04,3.18-1.49,4.87-0.65c8.22,4.14,15.75,9.26,22.23,15.83c1.4,1.42,2.81,2.83,4.21,4.24
		c3.1,1.82,4.92,4.9,7.26,7.46c1.66,1.82,3.3,2.38,5.73,1.73c20.15-5.39,40.78-7.68,61.51-9.33c7.94-0.62,15.71,0.14,22.85,3.77
		c9.52,4.83,19.68,6.88,30.14,8.12c5.27,0.62,10.5,1.56,15.63,2.97c4.86-0.04,9.41,1.53,14.97,2.64c-4.48,3.19-9.78,3.35-12.84,7.55
		c8.83-3.76,17.98-5.55,27.43-4.08c9.37,1.45,18.51,3.74,25.55,12.01c-7.69,3.04-15.03,5.71-19.3,12.95
		c6.44-2.7,13.01-4.79,19.76-6.32c3.41-0.78,6.82-1.47,10.32-1.79c2.85-0.25,4.38,0.82,4.91,3.62c2.13,11.19,4.53,7.69,9.22,18.01
		c1.12,2.45,3.36,12.85,4.2,15.38c3.45,10.43,7.13,17.96,13.63,25.46c3.22,3.71,10.6,9.06,15,11.17c6.12,2.93,20.14,2.04,25.83-1.17
		c6.13-3.47,13.57-10.1,17.33-15.83c6.69-10.19,8.74-11.6,11.33-20.17c1.81-5.96,2.65-11.46,5-17.5c2.05-5.28,5.46-8.46,6.67-14
		c1.03-4.68,4.61-4.88,9.37-4.18c7.75,1.14,11.57,2.29,18.86,5.26c1.52,0.62,3.05,1.2,4.74,1.86c-1.1-4.77-2.24-5.58-17.48-12.6
		c0.24-2.45,2.21-3.51,3.97-4.6c14.06-8.65,28.87-10.4,44.45-4.7c1.09,0.4,2.15,0.88,3.23,1.31c0.14,0.05,0.31,0.01,1.04,0.01
		c-3.37-4.23-8.46-4.61-13.2-7.29c5.39-1.76,10.09-2.87,15.01-3c6.92-1.82,13.98-2.93,21.07-3.77c7.84-0.93,15.35-2.81,22.42-6.36
		c8.75-4.41,17.92-5.32,27.65-4.46c16.24,1.43,32.44,3.02,48.38,6.57c3.41,0.75,6.87,1.36,10.19,2.41c2.83,0.89,4.7,0.11,6.54-2.05
		c2.15-2.53,4.12-5.24,6.76-7.33c7.48-7.89,16.04-14.36,25.7-19.37c0.73-0.38,1.51-0.7,2.3-0.92c1.42-0.4,2.69-0.1,3.47,1.22
		c0.8,1.36,0.33,2.63-0.82,3.53c-2.09,1.64-4.27,3.15-6.41,4.74c-0.74,0.54-1.44,1.14-1.71,2.46c6.96-2.97,13.92-5.95,20.89-8.92
		c1.37-0.58,2.74-1.19,4.16-1.64c1.16-0.36,2.72-0.32,3.07,0.87c0.65,2.22,2.36,2.88,4.02,3.95c1.77,1.16,1.3,2.98,0.04,4.33
		c-1.78,1.91-2.74,3.8-2.33,6.65c0.34,2.3-1.85,3.71-3.59,5.03c-4.87,5.78-10.3,10.99-15.92,16.03c-0.5,2.32,1.3,1.66,2.46,1.97
		c2.92,0.77,3.7,2.9,1.25,4.44c-9.71,6.1-18.44,13.93-31.71,12.11c-10.46-1.43-21.26-0.85-31.92,0.08
		c-8.46,0.73-16.97,0.72-25.45-0.11c-7.13-0.7-14.33-0.24-21.42-1.49c-0.64-0.11-1.27-0.25-2.13-0.43
		c-0.37-4.2,2.72-7.37,2.83-11.53c-11.56,20.43-26.59,36.64-50.3,42.98c-1.23-4.27,0.11-8.37-0.04-12.94
		c-1.71,1.32-1.85,3.03-2.45,4.43c-4.51,10.47-9.92,20.33-18.17,28.44c-4.67,4.58-10.1,7.48-16.4,9.05
		c-12.36,3.06-24.76,2.33-37.18,0.63c-0.64-0.09-1.28-0.48-2.13,0.21c1.08,1.81,3.01,2.35,4.77,3.01c8.65,3.25,17.7,4.5,26.86,5.14
		c1.16,0.08,2.33,0,3.5,0.06c1.65,0.09,3.56-0.1,3.57,2.38c0.02,2.81-2.09,2.67-3.9,2.47c-29.93-3.29-53.6,9.82-74.94,28.78
		c-8.61,7.64-16.25,16.24-22.96,25.64c-0.56,0.78-1.27,1.68-2.17,2.72c-1.32,1.53-3.72,1.46-4.93-0.15L533.06,649.37z"/>
</g>
<g>
	<path d="M250.24,718.3c0,1.73-0.19,3.73-0.56,5.98h-21.11v-1.35c0.15-4.52-1.92-6.77-6.21-6.77c-2.33,0-4.37,0.79-6.1,2.37
		c-1.73,1.58-2.6,3.58-2.6,5.98c0,1.66,1.05,3.2,3.16,4.63c2.11,1.43,4.67,2.84,7.68,4.23c3.01,1.39,6.02,2.94,9.03,4.63
		c3.01,1.69,5.57,3.95,7.68,6.77c2.11,2.82,3.16,6.04,3.16,9.65c0,1.58-0.19,3.24-0.56,4.97c-1.51,8.28-5.34,14.62-11.52,19.02
		c-6.17,4.4-13.62,6.61-22.35,6.61c-7.6,0-13.77-1.71-18.51-5.14c-4.74-3.42-7.11-8.75-7.11-15.97c0-1.81,0.3-4.52,0.9-8.13h21.22
		c-0.23,2.26-0.34,3.43-0.34,3.5c0,2.26,0.62,4.14,1.86,5.64c1.24,1.51,2.95,2.26,5.14,2.26c2.56,0,4.82-0.98,6.77-2.94
		c1.96-1.96,2.93-4.21,2.93-6.77c0-1.88-1.05-3.56-3.16-5.02c-2.11-1.47-4.65-2.82-7.62-4.06c-2.97-1.24-5.97-2.67-8.98-4.29
		c-3.01-1.62-5.57-3.88-7.68-6.77c-2.11-2.9-3.16-6.3-3.16-10.22c0-5.57,1.75-10.59,5.25-15.07c3.5-4.48,7.85-7.88,13.04-10.22
		c5.19-2.33,10.5-3.5,15.92-3.5c6.62,0,12.25,1.73,16.88,5.19C247.93,706.97,250.24,711.9,250.24,718.3z"/>
	<path d="M374.77,699.9l-37.59,83.54h-18.74l-2.48-54.08h-0.23l-22.58,54.08h-19.31l-6.1-83.54h21.68l1.13,54.3h0.23l22.35-54.3
		h16.37l2.03,54.53h0.23l21.45-54.53H374.77z"/>
	<path d="M414.06,699.9l-15.47,83.54h-21.34l15.47-83.54H414.06z"/>
	<path d="M525.82,699.9l-15.47,83.54h-19.64l12.31-62.54l-0.23-0.23l-29.47,62.77h-14.11l-6.21-62.77l-0.23,0.23l-10.95,62.54
		h-19.64l15.47-83.54h27.43l6.43,54.98h0.23l26.53-54.98H525.82z"/>
	<path d="M597.18,699.9l-3.5,18.74H577.3l-11.97,64.8H544l11.97-64.8h-16.48l3.5-18.74H597.18z"/>
	<path d="M635.56,699.9l-15.47,83.54h-21.34l15.47-83.54H635.56z"/>
	<path d="M747.33,699.9l-15.47,83.54h-19.64l12.31-62.54l-0.23-0.23l-29.47,62.77h-14.11l-6.21-62.77l-0.23,0.23l-10.95,62.54
		h-19.64l15.47-83.54h27.43l6.44,54.98h0.23l26.53-54.98H747.33z"/>
	<path d="M817.32,699.9l-3.5,18.74h-25.97l-2.37,12.98h25.18l-3.5,18.74h-25.18l-2.6,14.34h25.97l-3.5,18.74h-46.4l15.47-83.54
		H817.32z"/>
	<path d="M896.69,722.7c0,7.83-2.47,14.87-7.39,21.11c-4.93,6.25-11.2,9.97-18.8,11.18l17.39,28.45H863.5l-14.34-26.98h-0.23
		l-4.97,26.98h-20.43L839,699.9h26.42c3.76,0,6.74,0.06,8.92,0.17c2.18,0.11,4.85,0.64,8.02,1.58c3.16,0.94,5.72,2.35,7.68,4.23
		C894.47,710.02,896.69,715.63,896.69,722.7z M875.69,727.44c0-5.87-3.99-8.81-11.97-8.81h-7.79l-4.29,23.26h7.56
		c4.67,0,8.58-1.28,11.74-3.84C874.11,735.5,875.69,731.96,875.69,727.44z"/>
</g>
<path d="M743.88,544.46c0,18.39-2.42,36.21-6.97,53.17c-0.17,0.64-0.78,1.06-1.44,1c-3.04-0.24-6.03-0.39-8.97-0.44
	c-0.67,0-1.33-0.01-1.99-0.01c-5.47,0-10.83,0.36-16.1,1.06c-0.99,0.13-1.78-0.8-1.48-1.75c4.72-14.95,7.49-30.75,8.03-47.12
	c0.01-0.39,0.2-0.76,0.51-1.01c5.29-4.19,10.23-9.15,14.89-14.91c0.3-0.37,0.78-0.56,1.25-0.49c0.71,0.1,1.4,0.19,2.1,0.27
	c2.97,0.34,5.87,0.47,8.68,0.58c0.71,0.03,1.29,0.59,1.32,1.3C743.83,538.88,743.88,541.67,743.88,544.46z"/>
<path d="M371.01,597.71c0.31,0.97-0.5,1.9-1.5,1.75c-5.77-0.85-11.65-1.28-17.65-1.28c-0.64,0-1.29,0-1.94,0.01
	c-2.49,0.03-5.02,0.15-7.57,0.33c-0.65,0.05-1.26-0.37-1.42-1c-4.52-16.92-6.94-34.71-6.94-53.06c0-2.79,0.05-5.58,0.17-8.36
	c0.03-0.7,0.59-1.27,1.29-1.31c1.1-0.06,2.2-0.12,3.32-0.17c1.23-0.07,2.55-0.16,3.93-0.32c0.61-0.07,1.24-0.15,1.89-0.25
	c0.49-0.08,0.98,0.11,1.28,0.49c5.03,6.23,10.54,11.57,16.55,16.06c0.32,0.24,0.52,0.61,0.54,1.02
	C363.6,567.63,366.37,583.08,371.01,597.71z"/>
<path d="M731.14,473.18c0.34,0.91-0.36,1.87-1.33,1.84c-0.79-0.02-1.57-0.04-2.33-0.04c-2.08,0-4.12,0.09-6.1,0.27
	c-6.16,0.54-11.84,1.92-17.21,4.19c-0.71,0.3-1.51-0.03-1.8-0.74c-26.06-64.69-89.41-110.36-163.44-110.36
	c-74.28,0-137.82,45.98-163.71,111.04c-0.3,0.74-1.17,1.09-1.87,0.71c0,0-0.01,0-0.01-0.01c-5.54-2.82-11.54-4.49-18.21-5.05
	c-1.71-0.15-3.47-0.22-5.28-0.22c-0.56,0-1.13,0.01-1.71,0.02c-0.97,0.02-1.66-0.93-1.32-1.84c29-77.94,104.08-133.48,192.13-133.48
	C627.05,339.52,702.19,395.14,731.14,473.18z"/>
<path d="M397.9,382.24c-6.02,5.22-11.73,10.76-17.1,16.59c-1.62,1.75-4.37,1.8-6.05,0.11l-13.69-13.69c-1.64-1.64-1.64-4.31,0-5.95
	l17.15-17.15c1.64-1.64,4.31-1.64,5.95,0l13.95,13.95C399.83,377.83,399.74,380.65,397.9,382.24z"/>
<path d="M713.39,385.26l-11.91,11.91c-1.67,1.67-4.4,1.65-6.02-0.07c-5.44-5.76-11.21-11.24-17.29-16.39
	c-1.87-1.59-1.98-4.44-0.24-6.17l12.37-12.37c1.64-1.64,4.31-1.64,5.95,0l17.15,17.15C715.03,380.95,715.03,383.61,713.39,385.26z"
	/>
<path d="M566.36,298.57c0-1.43-1.16-2.59-2.59-2.59h-8.08v0h-32.66v0h-8.08c-1.43,0-2.59,1.16-2.59,2.59v7.49
	c0,1.43,1.16,2.59,2.59,2.59h5.49c1.43,0,2.59,1.16,2.59,2.59v16.11c0,1.49,1.26,2.67,2.75,2.57c4.36-0.26,8.74-0.39,13.15-0.39
	c4.69,0,9.35,0.15,13.99,0.44c1.5,0.1,2.77-1.08,2.77-2.58v-16.16c0-1.43,1.16-2.59,2.59-2.59h5.49c1.43,0,2.59-1.16,2.59-2.59
	V298.57z"/>
</svg>
